<svg id="Capa_1" data-name="Capa 1" xmlns="http://www.w3.org/2000/svg" viewBox="0 0 421.56 400"><defs><style>.cls-1{fill:#f6f4f0;}.cls-2{fill:#ba6461;}</style></defs><path class="cls-1" d="M244.75,64.06h0c24.12-28,69.45-4.16,60.14,31.57h0c34.35-13.55,63.44,28.59,38.59,55.9h0c36.71,4,42.88,54.8,8.19,67.44h0c30.66,20.57,12.5,68.44-24.09,63.51h0c17.59,32.46-20.73,66.42-50.84,45h0c.48,36.91-49.23,49.17-66,16.25h0c-16.72,32.92-66.44,20.66-65.95-16.25h0c-30.11,21.37-68.44-12.59-50.85-45h0C57.39,287.41,39.23,239.54,69.89,219h0c-34.69-12.64-28.52-63.47,8.19-67.44h0c-24.84-27.31,4.24-69.45,38.59-55.9h0c-9.31-35.73,36-59.53,60.15-31.57h0C185.18,28.1,236.38,28.1,244.75,64.06Z"/><path class="cls-2" d="M152.77,117.27H133c-2.08,6-4.23,12.63-6.45,19.34h14.2l-1.17,3.45H125.43c-2.28,7.23-4.62,14.45-6.77,21.09h20.57l-1.17,3.46H113.71c5.08-15.63,11.46-35.81,16.67-50.79H154Z"/><path class="cls-2" d="M162.86,150.8c-2.08,3.39-6,8.53-10.93,8.6h-.07c-6.05-.07-6.44-4.82-3.51-14.13,2.21-7,5.73-16.93,9.31-26.89h3.77c-4.3,11.59-7.68,21.29-9.57,27.28-2.47,7.75-2.54,10.35.39,10.35,2.48,0,6.25-3.78,8.27-7.29Z"/><path class="cls-2" d="M201.67,144.23v3.9c-2.35,5.34-7.56,11.27-11.79,11.27-3.38,0-5.21-2.54-5.21-5.73,0-4.56,2.93-10.55,5.15-15.69a28.61,28.61,0,0,1-7.95-1c-2.86,8.86-7.68,18.37-10.8,22.14l-2.41-2.21c4.88-6.32,9.44-17.58,11.33-25h3.32c-.13.71-.33,1.36-.52,2.08,3,.85,9.24,1.17,12.11,1-2.41,5.47-6.64,13.93-6.64,18,0,2,.71,3.06,2.34,3.06C193.53,156,199.39,148.52,201.67,144.23Z"/><path class="cls-2" d="M215.8,144.23v3.9c-2.54,5.54-7.49,11.27-12.11,11.27-9.44,0-4-13.55.52-25.66H208c-4.16,10.81-8.72,22.27-4,22.27C207.14,156,212,150.87,215.8,144.23ZM205.57,127a3.45,3.45,0,0,1,3.13-3.51,2,2,0,0,1,2.08,2.08,3.54,3.54,0,0,1-3.12,3.52A2,2,0,0,1,205.57,127Z"/><path class="cls-2" d="M226.54,154.12c0-5.14,5.27-10.87,5.27-15,0-1.76-.65-2.67-2.47-2.67-7.16,0-13.09,11.46-15.76,22.27H210c2.61-8.34,5.28-16.67,8.21-25h3.32l-2.15,6.12c3.06-4.36,6.77-6.77,10.74-6.77a5.09,5.09,0,0,1,5.47,5.47c0,4.23-5.41,11.07-5.41,15.17,0,1.5.72,2.28,2,2.28,3.26,0,7.75-5.53,11.59-11.78v3.9c-2.54,5.54-7.62,11.27-12.11,11.27C228.56,159.4,226.54,157.44,226.54,154.12Z"/><path class="cls-2" d="M266.71,144.1v4c-2.54,6.12-8,11.27-16.28,11.27-5.4,0-9.63-3.84-9.63-10.16,0-8.4,5.53-16.15,12.37-16.15,5.6,0,8.53,5.47,6.64,11.07h-3.58c1.43-4.56-.39-7.68-3.45-7.68-4.63,0-8.34,6.31-8.34,12.43,0,4.76,3,7.17,6.77,7.17C257.86,156.08,263.06,150.67,266.71,144.1Z"/><path class="cls-2" d="M294.84,140.78l-.66,4.23a11.44,11.44,0,0,1-9.83.91c-1.3,6.84-6.05,13.48-12.76,13.48-4.88,0-8.14-3.91-8.14-9.12,0-9.05,5.86-17.19,13.22-17.19,5.54,0,8.07,4.89,8.07,9.12v.39C287.54,144,292.3,143.64,294.84,140.78Zm-13.68,1.56c0-3.13-1.62-5.93-4.94-5.93-5,0-9.18,7-9.18,13.68,0,3.9,2.08,5.92,4.94,5.92C276.93,156,281.16,148.65,281.16,142.34Zm7.49-22.07-8.72,10h-2.8L284.61,120Z"/><path class="cls-2" d="M320.29,150.8c-2.08,3.39-6.05,8.6-11,8.6-3.13,0-5.14-2-5.14-5.28,0-5.14,5.27-10.87,5.27-15,0-1.76-.65-2.67-2.47-2.67-7.17,0-13.09,11.46-15.76,22.27h-3.58c2.6-8.34,5.27-16.67,8.2-25h3.32L297,139.86c3.06-4.36,6.78-6.77,10.75-6.77a5.1,5.1,0,0,1,5.47,5.47c0,4.23-5.41,11.07-5.41,15.17,0,1.5.65,2.28,1.89,2.28,2.47,0,6.25-3.78,8.27-7.29Z"/><path class="cls-2" d="M187.47,197.71v3.9c-2.53,5.54-7.48,11.27-12.11,11.27-3.71,0-4.36-2.8-4.49-4.3a8.52,8.52,0,0,1-7.49,4.3c-4.75,0-7.68-4.3-7.68-9.38,0-8.79,5.41-16.93,13.15-16.93a7.69,7.69,0,0,1,6.58,3.78c2.28-6.18,4.36-12.3,6.45-18.49h3.71c-11.33,31.32-13.61,37.63-9.9,37.63C178.82,209.49,183.63,204.35,187.47,197.71Zm-13.34-3.91a5.42,5.42,0,0,0-5.28-3.84c-5.86,0-9.57,6.71-9.57,13.54,0,2.93,1.57,5.86,4.69,5.86C168.53,209.36,171.39,203.7,174.13,193.8Z"/><path class="cls-2" d="M207.59,205.72a15.4,15.4,0,0,1-12.76,7.16c-6.77-.07-10.48-4.43-10.48-9.77,0-8.79,5.53-16.47,12.69-16.47a6.57,6.57,0,0,1,6.91,6.71c0,6.7-7.49,11.65-15.95,10,.26,3.51,2.47,6.25,7.61,6.25,3.71,0,7.95-3.39,9.64-6.19Zm-19.4-5.54c5.79,1.57,12.11-1.89,12.11-6.57a3.42,3.42,0,0,0-3.39-3.65C192.49,190,189,194.78,188.19,200.18Z"/><path class="cls-2" d="M235.33,197.71v3.9c-2.54,5.54-7.49,11.27-12.11,11.27-6.12,0-6.51-4.75-3.58-14.13,2.21-7,5.73-16.93,9.31-26.89h3.77c-4.29,11.59-7.68,21.29-9.57,27.28-2.47,7.75-2.54,10.35.39,10.35C226.67,209.49,231.49,204.35,235.33,197.71Z"/><path class="cls-2" d="M263.91,197.71v3.9c-2.54,5.54-7.49,11.27-12.11,11.27-3.71,0-4.36-2.8-4.49-4.3a8.61,8.61,0,0,1-7.62,4.3c-4.62,0-7.55-4.3-7.55-9.31,0-8.86,5.47-17,13.21-17a7.64,7.64,0,0,1,6.51,3.78l1.11-3.12h3.52c-6.45,18.16-7.36,22.26-4.37,22.26S260.07,204.35,263.91,197.71Zm-13.35-3.91a5.4,5.4,0,0,0-5.27-3.84c-5.86,0-9.57,6.71-9.57,13.61,0,2.86,1.56,5.79,4.75,5.79C245,209.36,247.83,203.7,250.56,193.8Z"/><path class="cls-2" d="M271.92,185.34c.84,3.38,6.64,11.39,6.51,17.71-.13,5.66-3.84,9.83-10.22,9.83-4,0-8.27-2.48-9.38-5.8a2.13,2.13,0,0,1,.13-2,80.51,80.51,0,0,0,10.16-19.73Zm-1.3,4.88a77.54,77.54,0,0,1-8.73,16.15,7.55,7.55,0,0,0,6.06,3.25,6.53,6.53,0,0,0,6.9-6.77C274.91,198.42,272.44,193.74,270.62,190.22Z"/><path class="cls-2" d="M310.93,242.3a51.63,51.63,0,0,1-3.29-7.23h-3.57a126,126,0,0,1-14,28.06c-2.92,3.76-8.48,10-13.13,10a2.85,2.85,0,0,1-2.52-1.1c-1.83-2.58-.06-9.61,8.57-34h-4.3l-2.09,5.89-.6-1.29c-1.26-2.7-5.32-5.62-9.73-5.62-11.91,0-19.62,12.5-20.2,24.59v.18l-.1.15c-5.29,7.1-10.41,11.18-14,11.18a4.08,4.08,0,0,1-3.52-1.66c-2.48-3.47-1.07-12.19,4.71-29.16l.14-.4h9.74l1.34-3.86h-9.64l.27-.76c1.5-4.32,3.33-9.26,5.45-14.72h-4.49c-.89,2.56-1.89,5.25-3,8.11-.84,2.28-1.71,4.63-2.56,7l-.13.38h-6.15l-1.35,3.86h6.17l-.27.78a142.94,142.94,0,0,0-4.38,14.55l-.07.18c-4,6.32-11.61,15.71-16.11,15.71-1.95,0-4.28-.93-4.28-5.39,0-5.4,4.64-15.57,8.35-23.74.64-1.39,1.25-2.73,1.79-4a89.13,89.13,0,0,1-17.58-1.48l-.59-.14.16-.58a26.78,26.78,0,0,0,.58-2.75h-4.24c-2.09,12.09-6.85,23.56-12.76,30.76l-.46.58-.08.12c-2.79,3-6.8,6.59-10.28,6.59a2.84,2.84,0,0,1-2.51-1.1c-1.82-2.58-.07-9.61,8.57-34h-4.31l-2.08,5.89-.6-1.29c-1.25-2.7-5.33-5.62-9.73-5.62-11.9,0-19.62,12.5-20.19,24.59l0,.18-.1.15c-5.29,7.1-10.41,11.18-14.06,11.18a4.06,4.06,0,0,1-3.51-1.66c-2.47-3.47-1.07-12.19,4.71-29.16l.14-.4h9.74l1.34-3.86h-9.64l.27-.76c1.5-4.32,3.32-9.26,5.44-14.72h-4.48c-.89,2.56-1.89,5.25-3,8.1-.84,2.29-1.71,4.63-2.56,7L122,238h-6.15l-1.33,3.86h6.15l-.27.78c-4.07,11.66-8.2,25.81-4,31.71,1.38,1.95,3.59,2.91,6.73,2.91,4.41,0,9.56-3.61,14.13-9.89l.74-1,.29,1.22c1.47,6,5.59,9.68,10.79,9.68,7,0,9.94-4.25,11.52-6.53l.92-1.31.14,1.59c.36,4.15,2.55,6.25,6.5,6.25,4.29,0,9.34-3.45,13.82-9.46,5.26-6.38,10-15.83,12.81-25.31L195,242l.54.15a46.56,46.56,0,0,0,11.32,1.42l.93-.05-.37.85L206,247.59c-3.12,7.1-6.65,15.14-6.65,21.26,0,5.13,3,8.45,7.63,8.45,4.39,0,10.24-4.59,14.89-11.69l1.17-1.78-.1,2.13c-.21,4.25.57,7.34,2.31,9.16,1.37,1.44,3.44,2.18,6.14,2.18,4.4,0,9.55-3.61,14.13-9.89l.73-1,.3,1.22c1.45,6,5.59,9.68,10.79,9.68,7,0,9.93-4.25,11.52-6.53l.92-1.31.14,1.59c.36,4.15,2.55,6.25,6.5,6.25,3.58,0,7.72-2.42,11.66-6.82l.51-.58.42.65c2.49,4,7.94,6.75,13.26,6.75,9.22,0,15.31-5.86,15.52-14.92C317.89,256,314,248.38,310.93,242.3ZM150.32,272.92c-5.54,0-8.06-5-8.06-9.72,0-10.81,5.86-22,15.66-22,4.17,0,8.08,2.86,8.87,6.51l0,.14,0,.13C161.89,265.69,157.13,272.92,150.32,272.92Zm108.21,0c-5.53,0-8.07-5-8.07-9.72,0-10.81,5.86-22,15.66-22,4.19,0,8.08,2.86,8.89,6.51l0,.14,0,.13C270.1,265.69,265.33,272.92,258.53,272.92Zm43.29.41a12.54,12.54,0,0,1-10-5.38l-.25-.34.26-.34A120.44,120.44,0,0,0,305.48,242l.46-1.24.75,1.46c2.82,5.44,6.7,12.88,6.59,19.88C313.16,268.82,308.56,273.33,301.82,273.33Z"/></svg>