<svg id="Capa_1" data-name="Capa 1" xmlns="http://www.w3.org/2000/svg" viewBox="0 0 421.56 400"><defs><style>.cls-1{fill:#ba6461;}.cls-2{fill:none;stroke:#fff;stroke-linecap:round;stroke-linejoin:round;stroke-width:4.69px;}</style></defs><path class="cls-1" d="M244.75,64.06h0c24.12-28,69.45-4.16,60.14,31.57h0c34.35-13.55,63.44,28.59,38.59,55.9h0c36.71,4,42.88,54.8,8.19,67.44h0c30.66,20.57,12.5,68.44-24.09,63.51h0c17.59,32.46-20.73,66.42-50.84,45h0c.48,36.91-49.23,49.17-66,16.25h0c-16.72,32.92-66.44,20.66-65.95-16.25h0c-30.11,21.37-68.44-12.59-50.85-45h0C57.39,287.41,39.23,239.54,69.89,219h0c-34.69-12.64-28.52-63.47,8.19-67.44h0c-24.84-27.31,4.24-69.45,38.59-55.9h0c-9.31-35.73,36-59.53,60.15-31.57h0C185.18,28.1,236.38,28.1,244.75,64.06Z"/><path class="cls-2" d="M226.7,196H147.15a47.57,47.57,0,0,1-3.44-16.3,15.22,15.22,0,0,1,22-14.11l1.37.69L188.5,177l2.82,1.41,19.46,9.7,10.08,5Z"/><path class="cls-2" d="M210.78,160.22l-17.16-16a63.78,63.78,0,0,1,7.07-7.42,15.13,15.13,0,0,1,20.18,0,63,63,0,0,1,7.08,7.42Z"/><path class="cls-2" d="M230.25,178.39l-19.47,9.7-19.46-9.7L188.5,177,167.08,166.3a47.52,47.52,0,0,1,1.48-15,15.21,15.21,0,0,1,25.06-7.08h0l17.16,16Z"/><path class="cls-2" d="M254.48,166.3,233.06,177l-2.81,1.41-19.47-18.17,17.17-16h0c8.36-7.79,22.13-4,25.05,7.08A47.23,47.23,0,0,1,254.48,166.3Z"/><path class="cls-2" d="M274.41,196H226.7l-5.84-2.9-10.08-5,19.47-9.7,2.81-1.41,21.42-10.68,1.38-.69a15.22,15.22,0,0,1,22,14.11A47.58,47.58,0,0,1,274.41,196Z"/><polygon class="cls-2" points="278.78 196.02 256.91 262.89 164.65 262.89 142.78 196.02 278.78 196.02"/><line class="cls-2" x1="210.78" y1="196.02" x2="210.78" y2="262.89"/><line class="cls-2" x1="168.24" y1="196.02" x2="186.18" y2="262.89"/><line class="cls-2" x1="253.33" y1="196.02" x2="235.39" y2="262.89"/></svg>