<svg id="Capa_1" data-name="Capa 1" xmlns="http://www.w3.org/2000/svg" viewBox="0 0 900 226.6"><defs><style>.cls-1{fill:#ba6461;}.cls-2{fill:none;stroke:#e7bf93;stroke-linecap:round;stroke-linejoin:round;stroke-width:3.55px;}</style></defs><path class="cls-1" d="M250.57,84.27h-26.2c-2.75,7.93-5.6,16.72-8.53,25.6h18.79l-1.55,4.56h-18.7c-3,9.57-6.12,19.13-9,27.92h27.24l-1.55,4.57H198.87c6.72-20.68,15.16-47.4,22.06-67.22h31.19Z"/><path class="cls-1" d="M263.93,128.65c-2.76,4.48-7.93,11.29-14.48,11.38h-.09c-8-.09-8.53-6.38-4.65-18.7,2.93-9.22,7.58-22.41,12.32-35.59h5c-5.69,15.34-10.17,28.18-12.67,36.1-3.27,10.26-3.36,13.71.52,13.71,3.28,0,8.27-5,10.94-9.65Z"/><path class="cls-1" d="M315.29,120v5.17c-3.11,7.07-10,14.91-15.6,14.91-4.48,0-6.9-3.36-6.9-7.59,0-6,3.88-14,6.81-20.76a38.3,38.3,0,0,1-10.51-1.38c-3.79,11.72-10.17,24.3-14.31,29.3l-3.19-2.93c6.47-8.36,12.5-23.27,15-33.1H291c-.17,1-.43,1.81-.68,2.76,4,1.12,12.23,1.55,16,1.38-3.18,7.24-8.79,18.44-8.79,23.79,0,2.58,1,4.05,3.11,4.05C304.51,135.55,312.27,125.64,315.29,120Z"/><path class="cls-1" d="M334,120v5.17c-3.37,7.32-9.91,14.91-16,14.91-12.5,0-5.35-17.93.69-34h5c-5.51,14.31-11.54,29.48-5.25,29.48C322.52,135.55,328.9,128.74,334,120ZM320.46,97.11a4.55,4.55,0,0,1,4.13-4.65,2.67,2.67,0,0,1,2.76,2.76c0,2.41-2.07,4.65-4.14,4.65A2.62,2.62,0,0,1,320.46,97.11Z"/><path class="cls-1" d="M348.2,133.05c0-6.81,7-14.39,7-19.82,0-2.33-.86-3.54-3.27-3.54-9.48,0-17.32,15.17-20.86,29.48h-4.74c3.45-11,7-22.07,10.86-33.1h4.4l-2.85,8.1c4-5.77,9-9,14.22-9,4.49,0,7.24,2.85,7.24,7.24,0,5.6-7.15,14.65-7.15,20.08,0,2,1,3,2.67,3,4.31,0,10.26-7.33,15.34-15.6v5.17C367.68,132.44,361,140,355,140,350.87,140,348.2,137.44,348.2,133.05Z"/><path class="cls-1" d="M401.37,119.78v5.34C398,133.22,390.77,140,379.83,140c-7.15,0-12.76-5.09-12.76-13.45,0-11.11,7.33-21.37,16.38-21.37,7.41,0,11.29,7.24,8.79,14.65H387.5c1.89-6-.52-10.17-4.57-10.17-6.12,0-11,8.36-11,16.46,0,6.29,4,9.48,9,9.48C389.65,135.63,396.55,128.48,401.37,119.78Z"/><path class="cls-1" d="M438.6,115.38l-.86,5.6a15.13,15.13,0,0,1-13,1.21c-1.73,9.05-8,17.84-16.9,17.84-6.46,0-10.77-5.17-10.77-12.07,0-12,7.76-22.75,17.5-22.75,7.32,0,10.68,6.47,10.68,12.07v.51C429,119.69,435.24,119.17,438.6,115.38Zm-18.1,2.07c0-4.14-2.15-7.84-6.55-7.84-6.63,0-12.15,9.3-12.15,18.1,0,5.17,2.76,7.84,6.55,7.84C414.9,135.55,420.5,125.81,420.5,117.45Zm9.91-29.21-11.55,13.27h-3.7l9.91-13.62Z"/><path class="cls-1" d="M472.29,128.65c-2.75,4.48-8,11.38-14.56,11.38-4.14,0-6.81-2.59-6.81-7,0-6.81,7-14.39,7-19.82,0-2.33-.86-3.54-3.27-3.54-9.48,0-17.33,15.17-20.86,29.48H429c3.45-11,7-22.07,10.86-33.1h4.39l-2.84,8.1c4.05-5.77,9-9,14.22-9,4.48,0,7.24,2.85,7.24,7.24,0,5.6-7.15,14.65-7.15,20.08,0,2,.86,3,2.5,3,3.27,0,8.27-5,10.94-9.65Z"/><path class="cls-1" d="M528.65,120v5.17c-3.36,7.32-9.91,14.91-16,14.91-4.91,0-5.77-3.71-5.95-5.69-1.37,2-4,5.69-9.91,5.69-6.29,0-10.16-5.69-10.16-12.41,0-11.64,7.15-22.41,17.4-22.41,4,0,7.59,2.59,8.71,5,3-8.19,5.77-16.29,8.53-24.47h4.91c-15,41.45-18,49.81-13.1,49.81C517.19,135.55,523.57,128.74,528.65,120ZM511,114.78c-.6-2.76-3.62-5.09-7-5.09-7.75,0-12.66,8.88-12.66,17.93,0,3.88,2.06,7.75,6.2,7.75C503.57,135.37,507.36,127.88,511,114.78Z"/><path class="cls-1" d="M555.28,130.55A20.38,20.38,0,0,1,538.39,140c-9-.09-13.88-5.86-13.88-12.93,0-11.63,7.33-21.8,16.81-21.8a8.68,8.68,0,0,1,9.13,8.87c0,8.88-9.91,15.43-21.11,13.19.34,4.65,3.27,8.27,10.08,8.27,4.91,0,10.51-4.48,12.76-8.18Zm-25.68-7.33c7.67,2.07,16-2.5,16-8.7a4.54,4.54,0,0,0-4.49-4.83C535.28,109.69,530.72,116.07,529.6,123.22Z"/><path class="cls-1" d="M592,120v5.17c-3.37,7.32-9.91,14.91-16,14.91-8.1,0-8.62-6.29-4.74-18.7,2.93-9.22,7.58-22.41,12.32-35.59h5c-5.69,15.34-10.17,28.18-12.67,36.1-3.28,10.26-3.36,13.71.52,13.71C580.52,135.55,586.9,128.74,592,120Z"/><path class="cls-1" d="M629.82,120v5.17c-3.36,7.32-9.91,14.91-16,14.91-4.92,0-5.78-3.71-5.95-5.69-1.38,2-4,5.69-10.08,5.69s-10-5.69-10-12.32c0-11.73,7.24-22.5,17.5-22.5,3.87,0,7.49,2.59,8.61,5l1.47-4.14H620c-8.53,24.05-9.74,29.48-5.77,29.48C618.35,135.55,624.73,128.74,629.82,120Zm-17.67-5.17c-.6-2.76-3.62-5.09-7-5.09-7.76,0-12.67,8.88-12.67,18,0,3.79,2.07,7.66,6.29,7.66C604.74,135.37,608.53,127.88,612.15,114.78Z"/><path class="cls-1" d="M640.41,103.57c1.12,4.49,8.79,15.09,8.62,23.45-.17,7.49-5.08,13-13.53,13-5.34,0-10.94-3.28-12.41-7.67a2.83,2.83,0,0,1,.17-2.67,105.71,105.71,0,0,0,13.45-26.12ZM638.69,110a102.24,102.24,0,0,1-11.55,21.37,10,10,0,0,0,8,4.31c5.51,0,9.05-3.71,9.13-9C644.38,120.9,641.1,114.69,638.69,110Z"/><path class="cls-1" d="M691.69,120v5.17c-3.36,7.32-9.91,14.91-16,14.91-11.38,0-8-14.65-2.76-29.73h-5.17l1.46-4.23h5.18c1.63-4.56,3.36-9,4.73-13h4.83c-1.81,4.65-3.45,9-4.83,13h8.11l-1.47,4.23h-8.19c-5.42,15.94-7,25.25-1.46,25.25C680.22,135.55,686.6,128.74,691.69,120Z"/><path class="cls-1" d="M729.52,120v5.17c-3.36,7.32-9.91,14.91-16,14.91-4.91,0-5.77-3.71-6-5.69-1.38,2-4,5.69-10.08,5.69s-10-5.69-10-12.32c0-11.73,7.24-22.5,17.5-22.5,3.88,0,7.5,2.59,8.62,5l1.46-4.14h4.65c-8.53,24.05-9.73,29.48-5.77,29.48C718.06,135.55,724.43,128.74,729.52,120Zm-17.67-5.17c-.6-2.76-3.62-5.09-7-5.09-7.75,0-12.67,8.88-12.67,18,0,3.79,2.07,7.66,6.29,7.66C704.44,135.37,708.23,127.88,711.85,114.78Z"/><path class="cls-1" d="M761.66,120v5.17c-3.1,7.07-10,14.91-15.6,14.91-4.48,0-6.89-3.36-6.89-7.59,0-6,3.88-14,6.81-20.76a39.61,39.61,0,0,1-9.66-1.21c-3,10.34-8.27,18.87-12.23,23-2.76,2.84-5.69,1.2-1.47-3.88,5.17-6.29,9-16.2,10.69-26h4.57c-.18,1-.35,2-.61,2.93a74.82,74.82,0,0,0,15.43,1.21c-3.19,7.24-8.79,18.44-8.79,23.79,0,2.58,1,4.05,3.1,4.05C750.89,135.55,758.64,125.64,761.66,120Z"/><path class="cls-1" d="M782.6,120v5.17c-3.36,7.32-9.91,14.91-16,14.91-11.38,0-8-14.65-2.76-29.73h-5.17l1.47-4.23h5.17c1.63-4.56,3.36-9,4.74-13h4.82c-1.81,4.65-3.44,9-4.82,13h8.1l-1.47,4.23h-8.18c-5.43,15.94-7,25.25-1.47,25.25C771.14,135.55,777.51,128.74,782.6,120Z"/><path class="cls-1" d="M820.43,120v5.17c-3.36,7.32-9.91,14.91-16,14.91-4.91,0-5.77-3.71-5.95-5.69-1.37,2-4,5.69-10.08,5.69s-10-5.69-10-12.32c0-11.73,7.23-22.5,17.49-22.5,3.88,0,7.5,2.59,8.62,5l1.46-4.14h4.66c-8.54,24.05-9.74,29.48-5.78,29.48C809,135.55,815.35,128.74,820.43,120Zm-17.67-5.17c-.6-2.76-3.62-5.09-7-5.09-7.75,0-12.66,8.88-12.66,18,0,3.79,2.06,7.66,6.29,7.66C795.35,135.37,799.14,127.88,802.76,114.78Z"/><path class="cls-1" d="M831,103.57c1.12,4.49,8.79,15.09,8.62,23.45-.18,7.49-5.09,13-13.53,13-5.35,0-11-3.28-12.41-7.67a2.81,2.81,0,0,1,.17-2.67,106,106,0,0,0,13.44-26.12ZM829.3,110a101.79,101.79,0,0,1-11.54,21.37,10,10,0,0,0,8,4.31c5.52,0,9.05-3.71,9.14-9C835,120.9,831.72,114.69,829.3,110Z"/><path class="cls-2" d="M132.32,100.12H72.09a36.21,36.21,0,0,1-2.61-12.27A11.53,11.53,0,0,1,86.13,77.09l1.05.52L103.4,85.7l2.13,1.07,14.73,7.35,7.63,3.8Z"/><path class="cls-2" d="M120.26,73l-13-12.13a47.9,47.9,0,0,1,5.29-5.56,11.52,11.52,0,0,1,15.41,0,47.9,47.9,0,0,1,5.29,5.56Z"/><path class="cls-2" d="M135,86.77l-14.74,7.35-14.73-7.35L103.4,85.7,87.18,77.61a35.75,35.75,0,0,1,1.1-11.27,11.52,11.52,0,0,1,19-5.45h0l13,12.13Z"/><path class="cls-2" d="M153.35,77.61,137.13,85.7,135,86.77,120.26,73l13-12.13h0a11.52,11.52,0,0,1,19,5.45A35.75,35.75,0,0,1,153.35,77.61Z"/><path class="cls-2" d="M168.44,100.12H132.32l-4.43-2.2-7.63-3.8L135,86.77l2.13-1.07,16.22-8.09,1-.52a11.54,11.54,0,0,1,16.66,10.76A36.21,36.21,0,0,1,168.44,100.12Z"/><polygon class="cls-2" points="171.75 100.12 155.19 150.74 85.34 150.74 68.78 100.12 171.75 100.12"/><line class="cls-2" x1="120.26" y1="100.12" x2="120.26" y2="150.74"/><line class="cls-2" x1="88.05" y1="100.12" x2="101.64" y2="150.74"/><line class="cls-2" x1="152.47" y1="100.12" x2="138.89" y2="150.74"/></svg>