<svg id="Capa_1" data-name="Capa 1" xmlns="http://www.w3.org/2000/svg" viewBox="0 0 100 100"><defs><style>.cls-1{fill:none;stroke:#fff;stroke-linecap:round;stroke-linejoin:round;stroke-width:3.11px;}</style></defs><path class="cls-1" d="M60.55,48.27H7.84A31.22,31.22,0,0,1,5.56,37.54a10.09,10.09,0,0,1,14.57-9.42l.91.46,14.2,7.08,1.86.93L50,43l6.68,3.33Z"/><path class="cls-1" d="M50,24.55,38.63,14a41.67,41.67,0,0,1,4.63-4.87,10.05,10.05,0,0,1,13.48,0A41.67,41.67,0,0,1,61.37,14Z"/><path class="cls-1" d="M62.9,36.59,50,43,37.1,36.59l-1.86-.93L21,28.58a31.34,31.34,0,0,1,1-9.87A10.08,10.08,0,0,1,38.63,14h0L50,24.55Z"/><path class="cls-1" d="M79,28.58l-14.2,7.08-1.86.93L50,24.55,61.37,14h0A10.08,10.08,0,0,1,78,18.71,31.34,31.34,0,0,1,79,28.58Z"/><path class="cls-1" d="M92.16,48.27H60.55l-3.87-1.92L50,43l12.9-6.43,1.86-.93L79,28.58l.91-.46a10.09,10.09,0,0,1,14.57,9.42A31.22,31.22,0,0,1,92.16,48.27Z"/><polygon class="cls-1" points="95.06 48.27 80.57 92.58 19.43 92.58 4.94 48.27 95.06 48.27"/><line class="cls-1" x1="50" y1="48.27" x2="50" y2="92.58"/><line class="cls-1" x1="21.81" y1="48.27" x2="33.7" y2="92.58"/><line class="cls-1" x1="78.19" y1="48.27" x2="66.3" y2="92.58"/></svg>