<svg id="Capa_1" data-name="Capa 1" xmlns="http://www.w3.org/2000/svg" viewBox="0 0 900 226.6"><defs><style>.cls-1{fill:#fff;}</style></defs><path class="cls-1" d="M122.84,75H91C87.6,84.61,84.14,95.3,80.57,106.1h22.87l-1.89,5.56H78.79c-3.67,11.64-7.44,23.28-10.9,34H101l-1.88,5.56H59.92C68.1,126,78.37,93.52,86.76,69.4h38Z"/><path class="cls-1" d="M139.09,129c-3.36,5.45-9.65,13.73-17.62,13.84h-.11c-9.75-.11-10.38-7.76-5.66-22.76,3.57-11.22,9.23-27.26,15-43.31h6.08c-6.92,18.67-12.37,34.29-15.42,43.94-4,12.48-4.09,16.67.63,16.67,4,0,10.07-6.08,13.32-11.74Z"/><path class="cls-1" d="M201.58,118.37v6.3c-3.77,8.59-12.16,18.14-19,18.14-5.45,0-8.39-4.09-8.39-9.23,0-7.34,4.72-17,8.29-25.27a46.3,46.3,0,0,1-12.8-1.68c-4.61,14.26-12.37,29.57-17.4,35.65l-3.88-3.56c7.86-10.17,15.2-28.32,18.24-40.27H172c-.21,1.15-.52,2.2-.84,3.35,4.83,1.37,14.89,1.89,19.51,1.68-3.88,8.81-10.7,22.44-10.7,29,0,3.14,1.15,4.92,3.78,4.92C188.47,137.35,197.91,125.29,201.58,118.37Z"/><path class="cls-1" d="M224.34,118.37v6.3c-4.09,8.91-12.06,18.14-19.51,18.14-15.2,0-6.5-21.82.84-41.32h6.08c-6.71,17.41-14.05,35.86-6.39,35.86C210.39,137.35,218.15,129.07,224.34,118.37ZM207.87,90.58c0-3.14,2.52-5.66,5-5.66a3.25,3.25,0,0,1,3.35,3.36c0,2.93-2.51,5.66-5,5.66A3.2,3.2,0,0,1,207.87,90.58Z"/><path class="cls-1" d="M241.64,134.31c0-8.28,8.49-17.51,8.49-24.12,0-2.83-1-4.3-4-4.3-11.54,0-21.08,18.46-25.38,35.87H215c4.2-13.42,8.5-26.85,13.22-40.27h5.34l-3.46,9.86c4.93-7,10.91-10.91,17.31-10.91,5.45,0,8.8,3.46,8.8,8.81,0,6.82-8.7,17.83-8.7,24.43,0,2.42,1.15,3.67,3.25,3.67,5.24,0,12.48-8.91,18.67-19v6.3c-4.09,8.91-12.27,18.14-19.51,18.14C244.89,142.81,241.64,139.66,241.64,134.31Z"/><path class="cls-1" d="M306.34,118.16v6.51c-4.09,9.85-12.9,18.14-26.22,18.14-8.7,0-15.52-6.19-15.52-16.36,0-13.53,8.91-26,19.92-26,9,0,13.74,8.81,10.7,17.83h-5.77c2.31-7.34-.63-12.38-5.55-12.38-7.45,0-13.43,10.18-13.43,20,0,7.66,4.83,11.54,10.91,11.54C292.07,137.46,300.46,128.76,306.34,118.16Z"/><path class="cls-1" d="M351.64,112.82l-1.05,6.81a18.44,18.44,0,0,1-15.84,1.47c-2.09,11-9.75,21.71-20.55,21.71-7.87,0-13.11-6.29-13.11-14.68,0-14.58,9.44-27.69,21.29-27.69,8.91,0,13,7.87,13,14.68v.63C339.89,118.06,347.55,117.43,351.64,112.82Zm-22,2.51c0-5-2.62-9.54-8-9.54-8.07,0-14.78,11.33-14.78,22,0,6.29,3.35,9.54,8,9.54C322.8,137.35,329.61,125.5,329.61,115.33Zm12.06-35.55L327.62,95.93h-4.51l12.06-16.57Z"/><path class="cls-1" d="M392.64,129c-3.36,5.45-9.76,13.84-17.73,13.84-5,0-8.28-3.15-8.28-8.5,0-8.28,8.49-17.51,8.49-24.12,0-2.83-1.05-4.3-4-4.3-11.54,0-21.08,18.46-25.38,35.87H340c4.2-13.42,8.5-26.85,13.22-40.27h5.34l-3.46,9.86c4.93-7,10.91-10.91,17.31-10.91,5.45,0,8.81,3.46,8.81,8.81,0,6.82-8.71,17.83-8.71,24.43,0,2.42,1.05,3.67,3,3.67,4,0,10.07-6.08,13.32-11.74Z"/><path class="cls-1" d="M461.21,118.37v6.3c-4.09,8.91-12.06,18.14-19.5,18.14-6,0-7-4.51-7.24-6.92-1.68,2.41-4.82,6.92-12.06,6.92-7.65,0-12.37-6.92-12.37-15.1,0-14.16,8.7-27.27,21.18-27.27,4.83,0,9.23,3.15,10.59,6.08,3.67-10,7-19.82,10.38-29.78h6c-18.24,50.44-21.91,60.61-15.94,60.61C447.27,137.35,455,129.07,461.21,118.37Zm-21.49-6.29c-.74-3.35-4.41-6.19-8.5-6.19-9.44,0-15.41,10.81-15.41,21.82,0,4.72,2.51,9.43,7.55,9.43C430.7,137.14,435.31,128,439.72,112.08Z"/><path class="cls-1" d="M493.61,131.27a24.76,24.76,0,0,1-20.55,11.54c-10.91-.11-16.88-7.13-16.88-15.73,0-14.16,8.91-26.53,20.45-26.53,7.76,0,11.11,5.87,11.11,10.8,0,10.8-12.06,18.77-25.69,16,.42,5.66,4,10.07,12.27,10.07,6,0,12.79-5.45,15.52-10Zm-31.25-8.91c9.34,2.52,19.51-3,19.51-10.59,0-2.94-1.89-5.88-5.45-5.88C469.28,105.89,463.73,113.66,462.36,122.36Z"/><path class="cls-1" d="M538.28,118.37v6.3c-4.09,8.91-12.06,18.14-19.5,18.14-9.86,0-10.49-7.66-5.77-22.76,3.56-11.22,9.23-27.26,15-43.31h6.09c-6.92,18.67-12.38,34.29-15.42,43.94-4,12.48-4.09,16.67.63,16.67C524.33,137.35,532.09,129.07,538.28,118.37Z"/><path class="cls-1" d="M584.32,118.37v6.3c-4.09,8.91-12.06,18.14-19.51,18.14-6,0-7-4.51-7.24-6.92-1.67,2.41-4.82,6.92-12.26,6.92s-12.17-6.92-12.17-15c0-14.26,8.81-27.37,21.29-27.37,4.72,0,9.12,3.15,10.49,6.08l1.78-5h5.66c-10.38,29.26-11.85,35.86-7,35.86C570.37,137.35,578.13,129.07,584.32,118.37Zm-21.5-6.29c-.74-3.35-4.41-6.19-8.5-6.19-9.43,0-15.41,10.81-15.41,21.92,0,4.62,2.52,9.33,7.65,9.33C553.8,137.14,558.41,128,562.82,112.08Z"/><path class="cls-1" d="M597.21,98.45c1.36,5.45,10.7,18.35,10.49,28.52-.21,9.13-6.19,15.84-16.47,15.84-6.5,0-13.31-4-15.1-9.33a3.49,3.49,0,0,1,.21-3.26A128.72,128.72,0,0,0,592.7,98.45Zm-2.1,7.86a123.9,123.9,0,0,1-14.05,26,12.15,12.15,0,0,0,9.75,5.24c6.72,0,11-4.51,11.12-10.9C602,119.53,598.05,112,595.11,106.31Z"/><path class="cls-1" d="M659.6,118.37v6.3c-4.09,8.91-12.06,18.14-19.5,18.14-13.84,0-9.75-17.83-3.36-36.18h-6.29l1.78-5.14h6.29c2-5.56,4.09-11,5.77-15.83h5.87c-2.2,5.66-4.19,11-5.87,15.83h9.86l-1.78,5.14h-10c-6.61,19.4-8.5,30.72-1.79,30.72C645.66,137.35,653.42,129.07,659.6,118.37Z"/><path class="cls-1" d="M705.64,118.37v6.3c-4.09,8.91-12.06,18.14-19.51,18.14-6,0-7-4.51-7.23-6.92-1.68,2.41-4.83,6.92-12.27,6.92s-12.17-6.92-12.17-15c0-14.26,8.81-27.37,21.29-27.37,4.72,0,9.12,3.15,10.49,6.08l1.78-5h5.66c-10.38,29.26-11.85,35.86-7,35.86C691.69,137.35,699.45,129.07,705.64,118.37Zm-21.5-6.29c-.73-3.35-4.4-6.19-8.49-6.19-9.44,0-15.42,10.81-15.42,21.92,0,4.62,2.52,9.33,7.66,9.33C675.12,137.14,679.74,128,684.14,112.08Z"/><path class="cls-1" d="M744.75,118.37v6.3c-3.78,8.59-12.16,18.14-19,18.14-5.45,0-8.39-4.09-8.39-9.23,0-7.34,4.72-17,8.28-25.27a47.81,47.81,0,0,1-11.74-1.47c-3.67,12.58-10.07,23-14.89,28-3.36,3.46-6.92,1.47-1.78-4.72,6.29-7.66,11-19.72,13-31.67h5.56c-.21,1.15-.42,2.41-.74,3.56a90.48,90.48,0,0,0,18.77,1.47c-3.88,8.81-10.69,22.44-10.69,29,0,3.14,1.15,4.92,3.77,4.92C731.64,137.35,741.08,125.29,744.75,118.37Z"/><path class="cls-1" d="M770.23,118.37v6.3c-4.09,8.91-12.06,18.14-19.51,18.14-13.84,0-9.75-17.83-3.35-36.18h-6.29l1.78-5.14h6.29c2-5.56,4.09-11,5.77-15.83h5.87c-2.2,5.66-4.19,11-5.87,15.83h9.85L763,106.63H753c-6.61,19.4-8.49,30.72-1.78,30.72C756.28,137.35,764,129.07,770.23,118.37Z"/><path class="cls-1" d="M816.26,118.37v6.3c-4.09,8.91-12.06,18.14-19.5,18.14-6,0-7-4.51-7.24-6.92-1.68,2.41-4.82,6.92-12.27,6.92s-12.16-6.92-12.16-15c0-14.26,8.81-27.37,21.29-27.37,4.72,0,9.12,3.15,10.48,6.08l1.79-5h5.66c-10.38,29.26-11.85,35.86-7,35.86C802.32,137.35,810.08,129.07,816.26,118.37Zm-21.49-6.29c-.74-3.35-4.41-6.19-8.5-6.19-9.44,0-15.41,10.81-15.41,21.92,0,4.62,2.51,9.33,7.65,9.33C785.75,137.14,790.36,128,794.77,112.08Z"/><path class="cls-1" d="M829.16,98.45c1.36,5.45,10.69,18.35,10.49,28.52-.21,9.13-6.19,15.84-16.47,15.84-6.5,0-13.32-4-15.1-9.33a3.49,3.49,0,0,1,.21-3.26,128.72,128.72,0,0,0,16.36-31.77Zm-2.1,7.86a123.9,123.9,0,0,1-14,26,12.15,12.15,0,0,0,9.75,5.24c6.71,0,11-4.51,11.12-10.9C834,119.53,830,112,827.06,106.31Z"/></svg>